<svg width="142" height="34" viewBox="0 0 142 34" fill="none" xmlns="http://www.w3.org/2000/svg">
<path d="M35.9177 12.1113C35.5855 12.1228 35.2545 12.0652 34.9458 11.9421C34.637 11.819 34.3572 11.6331 34.124 11.3962C33.8909 11.1593 33.7095 10.8765 33.5913 10.5658C33.4732 10.2552 33.4209 9.92331 33.4377 9.59134C33.4256 9.27584 33.482 8.96146 33.6028 8.66976C33.7236 8.37806 33.9061 8.11593 34.1377 7.90134C34.371 7.67019 34.6495 7.48962 34.9558 7.3709C35.2621 7.25218 35.5895 7.19787 35.9177 7.21134C36.2282 7.1798 36.5405 7.24999 36.8077 7.41134L36.5177 8.00134C36.3287 7.9199 36.1228 7.88558 35.9177 7.90134C35.4432 7.91593 34.988 8.09236 34.6277 8.40134C34.3241 8.72459 34.1497 9.14804 34.1377 9.59134C34.1231 9.8289 34.1591 10.0669 34.2434 10.2894C34.3277 10.512 34.4583 10.7142 34.6266 10.8825C34.7949 11.0508 34.997 11.1814 35.2196 11.2656C35.4422 11.3499 35.6801 11.386 35.9177 11.3713C36.0177 11.3713 36.2177 11.2813 36.3177 11.2813V10.0313H35.5177V9.23134H37.1077V11.8113L36.8077 11.9113C36.5239 12.0262 36.2233 12.0938 35.9177 12.1113ZM32.1477 7.25134V10.7213L30.0677 7.25134H29.3777V12.1113H30.0677V8.64134L32.1477 12.1113H32.8477V7.25134H32.1477ZM28.5777 7.25134H27.8877V12.1113H28.5977L28.5777 7.25134ZM24.4177 7.25134V7.94134H25.4177V12.1113H26.2077V7.94134H27.2077V7.25134H24.4177ZM23.0277 9.93134C23.2952 9.82371 23.5321 9.65201 23.7177 9.43134C23.8426 9.18627 23.9109 8.91631 23.9177 8.64134C23.9204 8.45806 23.8863 8.2761 23.8174 8.10624C23.7485 7.93638 23.6462 7.78207 23.5166 7.65246C23.387 7.52284 23.2327 7.42056 23.0628 7.35166C22.8929 7.28276 22.711 7.24865 22.5277 7.25134H20.7477V12.1113H21.4377V10.0313H22.3277L23.3277 12.1113H24.2177L23.0277 9.93134ZM21.4377 9.33134V7.94134H22.5277C22.7277 7.94134 22.8277 8.04134 23.0277 8.14134C23.2277 8.24134 23.2277 8.44134 23.2277 8.64134C23.2237 8.82375 23.1525 8.99825 23.0277 9.13134C22.8277 9.23134 22.7277 9.33134 22.5277 9.33134H21.4377ZM17.7677 12.1113C17.4386 12.1247 17.1104 12.0694 16.8039 11.9489C16.4975 11.8284 16.2195 11.6453 15.9877 11.4113C15.5541 10.9177 15.3065 10.2881 15.2877 9.63134C15.3086 9.00182 15.5573 8.40129 15.9877 7.94134C16.221 7.71019 16.4995 7.52962 16.8058 7.4109C17.1121 7.29218 17.4395 7.23787 17.7677 7.25134C18.0835 7.22876 18.4002 7.27926 18.6933 7.39893C18.9864 7.51859 19.248 7.7042 19.4577 7.94134C19.6948 8.14809 19.8871 8.40108 20.023 8.68481C20.1588 8.96853 20.2353 9.27702 20.2477 9.59134C20.2424 9.9259 20.1697 10.2559 20.0339 10.5618C19.8982 10.8676 19.7022 11.1429 19.4577 11.3713C19.2561 11.6213 18.9973 11.819 18.7031 11.9478C18.409 12.0767 18.0881 12.1327 17.7677 12.1113ZM17.7677 7.94134C17.5459 7.94043 17.3262 7.98424 17.1218 8.07015C16.9173 8.15606 16.7323 8.2823 16.5777 8.44134C16.416 8.5848 16.2881 8.76237 16.2034 8.96125C16.1186 9.16012 16.0791 9.37534 16.0877 9.59134C16.0687 9.83699 16.1046 10.0838 16.1928 10.3138C16.281 10.5439 16.4193 10.7514 16.5977 10.9213C16.7528 11.079 16.9381 11.2037 17.1426 11.2879C17.3471 11.3722 17.5665 11.4141 17.7877 11.4113C18.0193 11.4093 18.248 11.3596 18.4597 11.2655C18.6713 11.1713 18.8613 11.0347 19.0179 10.864C19.1745 10.6933 19.2944 10.4923 19.37 10.2734C19.4457 10.0544 19.4755 9.82229 19.4577 9.59134C19.4727 9.36776 19.4353 9.14377 19.3485 8.93718C19.2617 8.7306 19.1279 8.54712 18.9577 8.40134C18.8005 8.24859 18.614 8.12912 18.4096 8.05008C18.2051 7.97104 17.9868 7.93406 17.7677 7.94134ZM12.5177 12.1113H11.8177V7.25134H13.5977C13.7834 7.24135 13.9691 7.27196 14.1418 7.34104C14.3145 7.41013 14.4701 7.51601 14.5977 7.65134C14.8346 7.93326 14.9748 8.28378 14.9977 8.65134C14.9708 9.01798 14.8311 9.36731 14.5977 9.65134C14.4701 9.78667 14.3145 9.89256 14.1418 9.96164C13.9691 10.0307 13.7834 10.0613 13.5977 10.0513H12.5177V12.1113ZM12.5177 9.33134H13.5977C13.7977 9.33134 13.8877 9.23134 14.0877 9.13134C14.1785 8.98521 14.214 8.81138 14.1877 8.64134C14.2033 8.46852 14.1685 8.29488 14.0877 8.14134C13.8877 8.04134 13.7977 7.94134 13.5977 7.94134H12.5177V9.33134ZM8.74769 7.25134V12.1113H11.2277V11.3213H9.53769V10.0313H10.8277V9.33134H9.53769V7.94134H11.2277V7.25134H8.74769ZM7.25769 9.93134C7.48129 9.79523 7.68348 9.62673 7.85769 9.43134C8.02047 9.20234 8.08854 8.91932 8.04769 8.64134C8.05895 8.45636 8.02991 8.27114 7.96257 8.09849C7.89524 7.92583 7.79121 7.76986 7.65769 7.64134C7.53632 7.49811 7.38173 7.38676 7.20741 7.31704C7.0331 7.24731 6.84436 7.22132 6.65769 7.24134H4.87769V12.1013H5.66769V10.0313H6.46769L7.59769 12.1113H8.38769L7.25769 9.93134ZM5.66769 9.33134V7.94134H6.66769C6.84971 7.94715 7.02359 8.01812 7.15769 8.14134C7.25769 8.34134 7.35769 8.44134 7.35769 8.64134C7.3537 8.82375 7.28248 8.99825 7.15769 9.13134C7.02359 9.25456 6.84971 9.32554 6.66769 9.33134H5.66769ZM2.49769 9.33134V8.94134H1.80769V9.33134H1.59769C1.44731 9.3063 1.30794 9.23662 1.19769 9.13134C1.12434 9.07436 1.06725 8.99909 1.03215 8.91309C0.997047 8.8271 0.985165 8.73338 0.99769 8.64134C0.985364 8.54785 0.997285 8.45275 1.03231 8.36519C1.06733 8.27763 1.12428 8.20055 1.19769 8.14134C1.30794 8.03607 1.44731 7.96638 1.59769 7.94134H2.18769V7.25134H1.59769C1.42815 7.24185 1.25881 7.27324 1.10393 7.34285C0.949043 7.41246 0.813152 7.51826 0.707689 7.65134C0.557756 7.77264 0.43555 7.92465 0.349302 8.09715C0.263055 8.26964 0.214767 8.45862 0.207689 8.65134C0.255002 8.97963 0.3936 9.28801 0.607687 9.54134C0.394953 9.65451 0.220851 9.82861 0.107687 10.0413C0.0175302 10.2595 -0.0168375 10.4966 0.00768861 10.7313C-0.000971147 10.9008 0.0307833 11.0698 0.100332 11.2246C0.169881 11.3793 0.275233 11.5153 0.40769 11.6213C0.529849 11.7703 0.682053 11.8918 0.854365 11.978C1.02668 12.0641 1.21522 12.113 1.40769 12.1213H2.49769V10.0313H2.69769V9.33134H2.49769ZM1.80769 11.3313H1.40769C1.20769 11.3313 1.00769 11.3313 0.90769 11.1313C0.805012 11.0205 0.738706 10.8809 0.717688 10.7313C0.718342 10.5472 0.785862 10.3695 0.90769 10.2313C1.04803 10.1132 1.22432 10.0462 1.40769 10.0413H1.80769V11.3313ZM64.8777 4.88134C64.563 4.89399 64.2493 4.83893 63.9578 4.7199C63.6662 4.60086 63.4036 4.42061 63.1877 4.19134C62.9572 3.95542 62.7772 3.67505 62.6586 3.36732C62.5399 3.05958 62.4852 2.73091 62.4977 2.40134C62.4953 2.08802 62.555 1.77733 62.6735 1.48725C62.7919 1.19716 62.9667 0.933442 63.1877 0.711343C63.4036 0.482074 63.6662 0.301827 63.9578 0.182789C64.2493 0.0637502 64.563 0.00869477 64.8777 0.0213429C65.2238 -0.0206649 65.5743 0.0494326 65.8777 0.221342L65.5777 0.911342C65.3688 0.786218 65.1311 0.717316 64.8877 0.711343C64.4428 0.725164 64.0189 0.903293 63.6977 1.21134C63.4072 1.54382 63.2319 1.96118 63.1977 2.40134C63.2123 2.8758 63.3887 3.33099 63.6977 3.69134C64.0189 3.99939 64.4428 4.17752 64.8877 4.19134C65.0574 4.2079 65.2281 4.17306 65.3777 4.09134V2.79134H64.5977V2.09134H66.0877V4.59134L65.8877 4.69134C65.5792 4.85849 65.225 4.92162 64.8777 4.87134V4.88134ZM61.2077 0.0213429V3.49134L59.1277 0.0213429H58.3277V4.88134H59.1277V1.40134L61.1277 4.87134H61.9177V0.0113427L61.2077 0.0213429ZM57.6377 0.0213429H56.8377V4.88134H57.6377V0.0213429ZM55.4577 4.19134C55.2357 4.194 55.0155 4.15099 54.8107 4.06498C54.606 3.97897 54.4212 3.85179 54.2677 3.69134C54.0954 3.52574 53.9614 3.32448 53.875 3.10165C53.7886 2.87882 53.752 2.63981 53.7677 2.40134C53.7613 2.1788 53.8026 1.95746 53.8888 1.7522C53.9751 1.54695 54.1043 1.36253 54.2677 1.21134C54.4212 1.0509 54.606 0.923718 54.8107 0.837705C55.0155 0.751692 55.2357 0.708682 55.4577 0.711343C55.7325 0.719448 56.0021 0.787717 56.2477 0.911342V0.121343C55.9927 0.0397899 55.7249 0.0058908 55.4577 0.0213429C55.1281 0.00827345 54.7992 0.0627409 54.4914 0.181398C54.1836 0.300055 53.9033 0.480397 53.6677 0.711343C53.2567 1.1826 53.014 1.77709 52.9777 2.40134C52.9948 3.05965 53.2385 3.69191 53.6677 4.19134C53.9033 4.42229 54.1836 4.60263 54.4914 4.72129C54.7992 4.83995 55.1281 4.89441 55.4577 4.88134C55.7249 4.8968 55.9927 4.8629 56.2477 4.78134V3.99134C56.0014 4.1115 55.7317 4.17635 55.4577 4.18134V4.19134ZM51.6877 2.69134C51.9263 2.58159 52.1303 2.40869 52.2777 2.19134C52.362 2.07964 52.4231 1.9522 52.4575 1.81654C52.4918 1.68087 52.4987 1.53971 52.4777 1.40134C52.4898 1.21538 52.4601 1.02908 52.3909 0.856052C52.3217 0.683029 52.2147 0.527669 52.0777 0.401342C51.8064 0.147149 51.4494 0.00435177 51.0777 0.00134243H49.4077V4.86134H50.0977V2.79134H50.8877L51.9877 4.87134H52.7777L51.6877 2.69134ZM50.0977 2.09134V0.801342H51.0977C51.2977 0.801342 51.4977 0.801342 51.5977 1.00134C51.6587 1.04894 51.7083 1.10954 51.7429 1.17874C51.7775 1.24794 51.7962 1.32399 51.7977 1.40134C51.7956 1.58414 51.7241 1.75932 51.5977 1.89134C51.461 2.0168 51.2832 2.08794 51.0977 2.09134H50.0977ZM46.8277 4.87134C46.6051 4.87774 46.3838 4.83643 46.1786 4.75019C45.9733 4.66395 45.7889 4.53477 45.6377 4.37134C45.4772 4.21785 45.3501 4.033 45.264 3.82829C45.178 3.62358 45.135 3.40337 45.1377 3.18134V0.0113427H45.8377V3.18134C45.8342 3.31184 45.8582 3.44161 45.9082 3.56222C45.9581 3.68282 46.0329 3.79155 46.1277 3.88134C46.3169 4.06302 46.5657 4.16966 46.8277 4.18134C46.9576 4.18476 47.0867 4.15967 47.206 4.10784C47.3252 4.05601 47.4316 3.9787 47.5177 3.88134C47.6153 3.79326 47.6927 3.68508 47.7444 3.56424C47.7962 3.44339 47.8212 3.31277 47.8177 3.18134V0.0113427H48.5977V3.18134C48.6022 3.40273 48.5611 3.62268 48.4768 3.82743C48.3925 4.03219 48.2668 4.21735 48.1077 4.37134C47.9428 4.54177 47.7431 4.67465 47.5222 4.76094C47.3013 4.84722 47.0644 4.88488 46.8277 4.87134ZM42.0677 4.87134C41.753 4.88399 41.4393 4.82893 41.1477 4.7099C40.8562 4.59086 40.5936 4.41061 40.3777 4.18134C40.1472 3.94542 39.9672 3.66505 39.8486 3.35731C39.7299 3.04958 39.6752 2.72091 39.6877 2.39134C39.6853 2.07802 39.745 1.76733 39.8635 1.47725C39.9819 1.18716 40.1567 0.923442 40.3777 0.701343C40.5936 0.472074 40.8562 0.291827 41.1477 0.172788C41.4393 0.0537499 41.753 -0.00130546 42.0677 0.0113427C42.3959 -0.00213328 42.7233 0.0521822 43.0296 0.1709C43.3358 0.289618 43.6143 0.47019 43.8477 0.701343C44.0809 0.917323 44.2677 1.17856 44.3967 1.46913C44.5256 1.75969 44.594 2.07347 44.5977 2.39134C44.6119 2.7208 44.5574 3.0496 44.4378 3.3569C44.3181 3.66419 44.136 3.94328 43.9028 4.17645C43.6696 4.40963 43.3905 4.5918 43.0832 4.71142C42.7759 4.83105 42.4471 4.8855 42.1177 4.87134H42.0677ZM42.0677 0.701343C41.6233 0.717027 41.1999 0.894889 40.8777 1.20134C40.5872 1.53382 40.4119 1.95118 40.3777 2.39134C40.3923 2.8658 40.5687 3.32099 40.8777 3.68134C41.1999 3.9878 41.6233 4.16566 42.0677 4.18134C42.5418 4.16517 42.9965 3.98894 43.3577 3.68134C43.6638 3.32004 43.8367 2.86473 43.8477 2.39134C43.8199 1.95152 43.6477 1.53319 43.3577 1.20134C42.9965 0.89375 42.5418 0.717514 42.0677 0.701343ZM37.7077 4.87134H37.5977C37.289 4.85276 36.9852 4.78525 36.6977 4.67134C36.4213 4.4782 36.2144 4.2012 36.1077 3.88134L36.7977 3.68134C36.7977 3.78134 36.9977 3.98134 37.0977 4.08134C37.2662 4.10482 37.4331 4.13822 37.5977 4.18134C37.8431 4.19007 38.085 4.11998 38.2877 3.98134C38.3795 3.9345 38.4564 3.86278 38.5094 3.77437C38.5624 3.68596 38.5896 3.58442 38.5877 3.48134C38.5877 3.18134 38.2877 2.99134 37.5877 2.79134C36.5877 2.49134 36.0977 1.99134 36.0977 1.30134C36.0928 1.08404 36.1446 0.869217 36.2481 0.678068C36.3515 0.486918 36.5031 0.326052 36.6877 0.211343C37.0249 0.0433369 37.4028 -0.0259922 37.7777 0.0113427C38.256 0.00593835 38.718 0.185005 39.0677 0.511343L38.4777 1.00134C38.3964 0.89568 38.2893 0.812623 38.1668 0.760103C38.0442 0.707583 37.9103 0.687353 37.7777 0.701343C37.5758 0.686415 37.3734 0.72073 37.1877 0.801342C37.084 0.869259 36.9952 0.957416 36.9265 1.06052C36.8577 1.16362 36.8105 1.27955 36.7877 1.40134C36.7877 1.70134 37.1877 1.89134 37.7877 2.09134C38.2683 2.2162 38.7111 2.45649 39.0777 2.79134C39.2377 3.02182 39.3088 3.30249 39.2777 3.58134C39.2694 3.7728 39.2215 3.96047 39.1372 4.13256C39.0529 4.30465 38.9339 4.45744 38.7877 4.58134C38.4626 4.77873 38.0879 4.87933 37.7077 4.87134ZM33.3377 0.0113427V4.87134H35.7177V4.08134H34.0377V2.79134H35.3277V2.09134H34.0377V0.801342H35.7177V0.0113427H33.3377ZM31.7577 2.69134C31.8843 2.65135 32.0017 2.58653 32.103 2.50069C32.2043 2.41484 32.2875 2.30968 32.3477 2.19134C32.5479 1.97786 32.6558 1.69393 32.6477 1.40134C32.6249 1.03378 32.4846 0.683258 32.2477 0.401342C31.9647 0.166199 31.6148 0.0262353 31.2477 0.00134243H29.4677V4.86134H30.1677V2.79134H30.9577L32.0477 4.87134H32.8477L31.7577 2.69134ZM30.1677 2.09134V0.801342H31.2577C31.4577 0.801342 31.5577 0.801342 31.6577 1.00134C31.7577 1.20134 31.8477 1.20134 31.8477 1.40134C31.8477 1.60134 31.8477 1.80134 31.6577 1.89134C31.6101 1.95234 31.5495 2.00194 31.4803 2.03654C31.4111 2.07114 31.335 2.08986 31.2577 2.09134H30.1677ZM25.5977 4.87134H25.4977C25.189 4.85276 24.8852 4.78525 24.5977 4.67134C24.3213 4.4782 24.1144 4.2012 24.0077 3.88134L24.6977 3.68134C24.7117 3.76726 24.7464 3.84851 24.7986 3.91816C24.8508 3.9878 24.9191 4.04379 24.9977 4.08134C25.1977 4.08134 25.2977 4.18134 25.4977 4.18134C25.7409 4.17404 25.9783 4.10523 26.1877 3.98134C26.2795 3.9345 26.3564 3.86278 26.4094 3.77437C26.4624 3.68596 26.4896 3.58442 26.4877 3.48134C26.4877 3.18134 26.1877 2.99134 25.4877 2.79134C24.4877 2.49134 23.9977 1.99134 23.9977 1.30134C23.9938 1.08308 24.0472 0.867619 24.1524 0.676386C24.2577 0.485152 24.4112 0.324821 24.5977 0.211343C24.9379 0.041462 25.3195 -0.0279166 25.6977 0.0113427C26.1692 0.0257814 26.6213 0.202375 26.9777 0.511343L26.3877 1.00134C26.3011 0.904513 26.1946 0.827564 26.0755 0.775779C25.9564 0.723995 25.8275 0.698601 25.6977 0.701343C25.4925 0.685582 25.2866 0.719898 25.0977 0.801342C24.9815 0.853791 24.8823 0.937862 24.8116 1.04395C24.7409 1.15005 24.7014 1.27389 24.6977 1.40134C24.6977 1.70134 24.9977 1.89134 25.6977 2.09134C26.1744 2.21843 26.6135 2.45855 26.9777 2.79134C27.0919 3.04031 27.1597 3.30803 27.1777 3.58134C27.1694 3.7728 27.1215 3.96047 27.0372 4.13256C26.9529 4.30465 26.8339 4.45744 26.6877 4.58134C26.3597 4.78058 25.9813 4.88125 25.5977 4.87134ZM22.0277 4.87134H21.9277C21.619 4.85276 21.3152 4.78525 21.0277 4.67134C20.7513 4.4782 20.5444 4.2012 20.4377 3.88134L21.1277 3.68134C21.1277 3.78134 21.3277 3.98134 21.4277 4.08134C21.5962 4.10482 21.7631 4.13822 21.9277 4.18134C22.1731 4.19007 22.4149 4.11998 22.6177 3.98134C22.7095 3.9345 22.7864 3.86278 22.8394 3.77437C22.8924 3.68596 22.9196 3.58442 22.9177 3.48134C22.9177 3.18134 22.6177 2.99134 21.9177 2.79134C20.9177 2.49134 20.4277 1.99134 20.4277 1.30134C20.4228 1.08404 20.4746 0.869217 20.5781 0.678068C20.6815 0.486918 20.8331 0.326052 21.0177 0.211343C21.3579 0.041462 21.7395 -0.0279166 22.1177 0.0113427C22.5927 0.00748476 23.051 0.186515 23.3977 0.511343L22.8077 1.00134C22.7211 0.904513 22.6146 0.827564 22.4955 0.775779C22.3764 0.723995 22.2475 0.698601 22.1177 0.701343C21.9125 0.685582 21.7066 0.719898 21.5177 0.801342C21.414 0.869259 21.3252 0.957416 21.2565 1.06052C21.1877 1.16362 21.1405 1.27955 21.1177 1.40134C21.1177 1.70134 21.5177 1.89134 22.1177 2.09134C22.5944 2.21843 23.0335 2.45855 23.3977 2.79134C23.5601 3.02451 23.6313 3.30918 23.5977 3.59134C23.5894 3.7828 23.5415 3.97047 23.4572 4.14256C23.3729 4.31465 23.2539 4.46744 23.1077 4.59134C22.7844 4.7834 22.4136 4.88045 22.0377 4.87134H22.0277ZM17.5977 0.0113427V4.87134H20.0777V4.08134H18.3677V2.79134H19.6577V2.09134H18.3677V0.801342H20.0477V0.0113427H17.5977ZM16.1177 0.0113427V3.48134L14.1177 0.0113427H13.3277V4.87134H14.0177V1.40134L16.1077 4.87134H16.8977V0.0113427H16.1177ZM12.5477 0.0113427H11.8477V4.87134H12.5477V0.0113427ZM9.59769 4.87134H9.49769C9.19223 4.85272 8.89174 4.7852 8.60769 4.67134C8.3255 4.48195 8.1144 4.20401 8.00769 3.88134L8.70769 3.68134C8.70769 3.78134 8.90769 3.98134 9.00769 4.08134C9.17273 4.10567 9.33631 4.13905 9.49769 4.18134C9.74636 4.19081 9.99156 4.12075 10.1977 3.98134C10.2869 3.93225 10.3611 3.85975 10.4122 3.77165C10.4633 3.68355 10.4894 3.58318 10.4877 3.48134C10.4877 3.18134 10.1977 2.99134 9.48769 2.79134C8.48769 2.49134 7.99769 1.99134 7.99769 1.30134C7.9928 1.0829 8.04572 0.867052 8.15108 0.675642C8.25645 0.484231 8.41051 0.32406 8.59769 0.211343C8.93385 0.040113 9.31264 -0.0293906 9.68769 0.0113427C10.1656 0.00797802 10.6269 0.186762 10.9777 0.511343L10.3777 1.00134C10.2925 0.902886 10.1862 0.824818 10.0668 0.772895C9.94738 0.720973 9.81782 0.696521 9.68769 0.701343C9.48254 0.685582 9.27664 0.719898 9.08769 0.801342C8.88813 0.946387 8.74923 1.16008 8.69769 1.40134C8.69769 1.70134 9.08769 1.89134 9.69769 2.09134C10.1764 2.2209 10.6182 2.46061 10.9877 2.79134C11.1477 3.02182 11.2188 3.30249 11.1877 3.58134C11.1793 3.77381 11.1305 3.96236 11.0443 4.13467C10.9582 4.30698 10.8367 4.45918 10.6877 4.58134C10.3597 4.78058 9.98132 4.88125 9.59769 4.87134ZM5.72769 4.87134C5.4983 4.88358 5.26883 4.84892 5.05328 4.76948C4.83774 4.69005 4.64065 4.5675 4.47406 4.40933C4.30747 4.25117 4.17488 4.0607 4.08438 3.84956C3.99387 3.63843 3.94736 3.41106 3.94769 3.18134V0.0113427H4.73769V3.18134C4.73416 3.31277 4.75915 3.44339 4.81094 3.56424C4.86273 3.68508 4.94008 3.79326 5.03769 3.88134C5.11743 3.9862 5.22274 4.06883 5.34355 4.12136C5.46436 4.17388 5.59662 4.19454 5.72769 4.18134C5.98971 4.16966 6.23853 4.06302 6.42769 3.88134C6.5528 3.66882 6.62163 3.42789 6.62769 3.18134V0.0113427H7.41769V3.18134C7.42035 3.40337 7.37734 3.62358 7.29133 3.82829C7.20531 4.033 7.07814 4.21785 6.91769 4.37134C6.77141 4.5302 6.59355 4.65673 6.39551 4.74283C6.19747 4.82893 5.98363 4.87271 5.76769 4.87134H5.72769ZM0.177691 4.87134V0.0113427H1.66769C2.03433 0.0382114 2.38366 0.177943 2.66769 0.411342C2.80469 0.537669 2.91171 0.693029 2.98092 0.866052C3.05013 1.03908 3.07977 1.22538 3.06769 1.41134C3.0801 1.57224 3.05992 1.73399 3.00838 1.88691C2.95683 2.03983 2.87497 2.18079 2.76769 2.30134C2.95225 2.41717 3.09028 2.59413 3.15769 2.80134C3.28281 3.01022 3.35171 3.24793 3.35769 3.49134C3.36895 3.67632 3.33991 3.86154 3.27257 4.0342C3.20523 4.20685 3.10121 4.36283 2.96769 4.49134C2.68366 4.72474 2.33433 4.86447 1.96769 4.89134L0.177691 4.87134ZM0.867689 4.08134H1.99769C2.09119 4.09367 2.18628 4.08175 2.27384 4.04672C2.3614 4.0117 2.43849 3.95475 2.49769 3.88134C2.55868 3.83375 2.60829 3.77314 2.64289 3.70394C2.67748 3.63474 2.69621 3.55869 2.69769 3.48134C2.69565 3.29854 2.62415 3.12336 2.49769 2.99134C2.29769 2.89134 2.19769 2.79134 1.99769 2.79134H0.90769L0.867689 4.08134ZM0.867689 2.08134H1.66769C1.85009 2.07736 2.0246 2.00614 2.15769 1.88134C2.28415 1.74932 2.35564 1.57414 2.35769 1.39134C2.35621 1.31399 2.33748 1.23794 2.30289 1.16874C2.26829 1.09955 2.21868 1.03894 2.15769 0.991342C2.05769 0.791342 1.86769 0.791343 1.66769 0.791343H0.867689V2.08134Z" transform="translate(46.4023 21.417)" fill="#11273F"/>
<path d="M2.28 7.44836H5.55C5.81146 7.45598 6.07141 7.40621 6.31156 7.30255C6.55171 7.19889 6.76622 7.04386 6.94 6.84836C7.15496 6.67083 7.32236 6.44258 7.4271 6.18421C7.53185 5.92584 7.57065 5.64547 7.54 5.36836C7.56219 5.0905 7.51954 4.81129 7.41542 4.55272C7.3113 4.29416 7.14855 4.06331 6.94 3.87836C6.76622 3.68287 6.55171 3.52783 6.31156 3.42417C6.07141 3.32051 5.81146 3.27074 5.55 3.27836H2.28V7.44836ZM2.28 15.9784H0V1.00836H5.55C6.70242 1.03544 7.80226 1.49608 8.63 2.29836C9.40609 3.13498 9.83197 4.23726 9.82 5.37836C9.83526 5.94344 9.73789 6.5059 9.53359 7.03298C9.32928 7.56005 9.02212 8.04119 8.63 8.44836C8.23357 8.86448 7.75522 9.19394 7.22512 9.41596C6.69501 9.63799 6.12465 9.74776 5.55 9.73836H2.28V15.9784ZM13.88 7.44836V3.27836H17.06C17.3347 3.27134 17.6078 3.321 17.8625 3.42423C18.1171 3.52746 18.3478 3.68205 18.54 3.87836C18.9241 4.27943 19.139 4.81303 19.14 5.36836C19.1513 5.64453 19.1052 5.92004 19.0047 6.1775C18.9041 6.43497 18.7513 6.6688 18.5559 6.86424C18.3604 7.05969 18.1266 7.2125 17.8691 7.31303C17.6117 7.41357 17.3362 7.45965 17.06 7.44836H13.88ZM18.88 9.32836C19.6571 9.00788 20.3169 8.45632 20.77 7.74836C21.218 7.03867 21.4314 6.20604 21.38 5.36836C21.3906 4.79354 21.2814 4.22282 21.0593 3.69253C20.8372 3.16225 20.5071 2.68404 20.09 2.28836C19.2865 1.48156 18.1986 1.02201 17.06 1.00836H11.6V16.0084H13.88V9.72836H16.46L19.73 16.0084H22.21L18.88 9.32836ZM30.38 3.17836C29.67 3.15828 28.9639 3.28969 28.3087 3.56386C27.6534 3.83802 27.0641 4.24864 26.58 4.76836C26.0743 5.25694 25.6727 5.84283 25.3994 6.49075C25.1262 7.13866 24.9869 7.83519 24.99 8.53836C25.0028 9.95539 25.5742 11.3101 26.58 12.3084C27.065 12.8263 27.6547 13.235 28.3099 13.5074C28.9651 13.7799 29.6708 13.9097 30.38 13.8884C31.0838 13.9131 31.7845 13.7847 32.4338 13.5119C33.083 13.2391 33.6652 12.8284 34.14 12.3084C34.6559 11.8276 35.0643 11.2432 35.3383 10.5934C35.6123 9.94371 35.7458 9.24335 35.73 8.53836C35.7536 7.83233 35.6237 7.12958 35.3492 6.47868C35.0747 5.82777 34.6621 5.24423 34.14 4.76836C33.6657 4.24703 33.0838 3.83488 32.4347 3.56036C31.7855 3.28585 31.0845 3.15551 30.38 3.17836ZM30.38 16.1784C29.3783 16.1842 28.386 15.9849 27.4642 15.5928C26.5423 15.2007 25.7106 14.624 25.02 13.8984C24.2946 13.2097 23.718 12.3797 23.3259 11.4595C22.9338 10.5393 22.7344 9.54858 22.74 8.54836C22.748 6.49845 23.5678 4.5352 25.02 3.08836C25.7165 2.37658 26.5514 1.81505 27.4732 1.43839C28.3951 1.06173 29.3844 0.877945 30.38 0.898362C31.3883 0.87719 32.3905 1.05931 33.3268 1.43385C34.2632 1.80839 35.1145 2.36768 35.83 3.07836C36.5301 3.80216 37.0804 4.65706 37.4493 5.59402C37.8183 6.53097 37.9986 7.53155 37.98 8.53836C38.0039 9.53208 37.8227 10.52 37.4476 11.4406C37.0725 12.3611 36.5116 13.1944 35.8 13.8884C35.0947 14.6112 34.2517 15.1853 33.3208 15.5769C32.3898 15.9685 31.3899 16.1696 30.38 16.1684V16.1784ZM44.06 16.1784H43.76C42.8193 16.1345 41.9031 15.8635 41.09 15.3884C40.1499 14.9204 39.4315 14.1014 39.09 13.1084L41.27 12.3184C41.3488 12.5734 41.4779 12.8101 41.6497 13.0145C41.8214 13.2189 42.0323 13.3868 42.27 13.5084C42.7692 13.7316 43.3043 13.8637 43.85 13.8984C44.6372 13.9476 45.4145 13.7016 46.03 13.2084C46.4558 12.9002 46.7432 12.4368 46.83 11.9184C46.83 10.9184 45.83 10.2284 43.75 9.63836C40.58 8.74836 39.09 7.15836 39.19 5.07836C39.1695 4.398 39.3346 3.72489 39.6676 3.13121C40.0005 2.53753 40.4888 2.04567 41.08 1.70836C42.082 1.0718 43.2688 0.790084 44.45 0.908362C45.1739 0.916389 45.8888 1.07017 46.552 1.36053C47.2152 1.65089 47.8131 2.07187 48.31 2.59836L46.61 4.07836C46.3205 3.78265 45.9729 3.55003 45.5891 3.39514C45.2053 3.24026 44.7937 3.16645 44.38 3.17836C43.7672 3.11381 43.1483 3.21753 42.59 3.47836C42.2528 3.62212 41.9616 3.85579 41.7482 4.15383C41.5348 4.45188 41.4075 4.80283 41.38 5.16836C41.38 6.05836 42.38 6.84836 44.46 7.44836C45.9545 7.78341 47.3052 8.58125 48.32 9.72836C48.8329 10.3782 49.1145 11.1805 49.12 12.0084C49.0833 12.6093 48.9069 13.1934 48.6049 13.7142C48.3028 14.235 47.8834 14.6781 47.38 15.0084C46.4425 15.7912 45.2509 16.2038 44.03 16.1684L44.06 16.1784ZM53.18 7.45836H56.46C56.72 7.46588 56.9784 7.41602 57.2169 7.31232C57.4555 7.20861 57.6682 7.05362 57.84 6.85836C58.0679 6.68685 58.2506 6.46253 58.3726 6.20471C58.4945 5.9469 58.552 5.66331 58.54 5.37836C58.5425 5.09341 58.4809 4.81153 58.3598 4.55361C58.2386 4.29569 58.0609 4.06833 57.84 3.88836C57.6682 3.6931 57.4555 3.53811 57.2169 3.43441C56.9784 3.3307 56.72 3.28084 56.46 3.28836H53.15L53.18 7.45836ZM53.18 15.9884H50.87V1.00836H56.43C57.58 1.033 58.6776 1.49419 59.5 2.29836C60.304 3.12499 60.7649 4.22552 60.79 5.37836C60.7871 5.94973 60.6717 6.51493 60.4504 7.04169C60.2291 7.56845 59.9061 8.04644 59.5 8.44836C59.1062 8.86518 58.6298 9.19522 58.1011 9.41735C57.5725 9.63948 57.0033 9.74881 56.43 9.73836H53.15L53.18 15.9884ZM62.6 0.988362V16.0084H70.24V13.6984H64.89V9.62836H69.05V7.34836H64.89V3.27836H70.24V1.00836L62.6 0.988362ZM86.6 0.988362V3.27836H89.68V16.0084H91.96V3.27836H95.13V1.00836L86.6 0.988362ZM86.01 12.8884L85.81 13.2884C85.0729 14.2288 84.1191 14.9768 83.03 15.4684C81.8886 16.0246 80.6292 16.2957 79.36 16.2584C78.2317 16.3033 77.1076 16.0959 76.0696 15.6513C75.0316 15.2067 74.1059 14.5361 73.36 13.6884C72.0725 12.244 71.3669 10.3732 71.38 8.43836C71.3493 7.42097 71.5389 6.40897 71.9359 5.47172C72.3329 4.53448 72.9279 3.69416 73.68 3.00836C74.4316 2.27418 75.3242 1.69986 76.3038 1.32003C77.2835 0.940206 78.3299 0.762748 79.38 0.798362C80.0166 0.765707 80.6544 0.833196 81.27 0.998362C81.8941 1.09182 82.4967 1.29495 83.05 1.59836C84.1461 2.12441 85.0996 2.90641 85.83 3.87836L86.03 4.26836L84.24 5.65836L83.95 5.26836C83.4306 4.55087 82.7441 3.9708 81.95 3.57836C81.1414 3.21086 80.2574 3.03955 79.37 3.07836C78.369 3.06052 77.3804 3.30165 76.5 3.77836C75.689 4.28316 75.0048 4.9674 74.5 5.77836C74.0237 6.62632 73.782 7.58594 73.8 8.55836C73.7779 9.30512 73.9142 10.0481 74.2 10.7384C74.4426 11.416 74.8478 12.0238 75.38 12.5084C75.6012 12.7559 75.8698 12.9566 76.17 13.0984C76.4829 13.303 76.8185 13.4708 77.17 13.5984C77.8975 13.875 78.6719 14.0075 79.45 13.9884C80.3032 14.0158 81.1514 13.8482 81.93 13.4984C82.6975 13.1093 83.378 12.5684 83.93 11.9084L84.22 11.6084L86.01 12.8884ZM72.19 0.00836188C72.3632 -0.0177223 72.5401 0.017657 72.69 0.108362C72.89 0.208362 72.99 0.408362 73.09 0.508362C73.2021 0.686585 73.2706 0.888714 73.29 1.09836C73.2505 1.27465 73.183 1.44346 73.09 1.59836C72.9824 1.75242 72.8467 1.88474 72.69 1.98836C72.5401 2.07907 72.3632 2.11445 72.19 2.08836C72.0204 2.10312 71.8502 2.06838 71.7 1.98836C71.5433 1.88474 71.4076 1.75242 71.3 1.59836C71.2276 1.44195 71.1933 1.27059 71.2 1.09836C71.1834 0.896425 71.2178 0.693554 71.3 0.508362C71.4 0.408362 71.5 0.208362 71.7 0.108362C71.8502 0.0283426 72.0204 -0.00639368 72.19 0.00836188ZM72.19 0.208362C72.0523 0.194936 71.9143 0.230332 71.8 0.308362C71.6 0.408362 71.5 0.508362 71.5 0.608362C71.4 0.798362 71.3 0.898362 71.3 1.09836C71.3 1.29836 71.4 1.39836 71.4 1.49836C71.5139 1.62188 71.6495 1.72355 71.8 1.79836C71.917 1.86929 72.0537 1.90083 72.19 1.88836C72.3616 1.9019 72.5339 1.8709 72.69 1.79836L72.99 1.49836C73.0695 1.38103 73.105 1.23932 73.09 1.09836C73.1066 0.928696 73.0717 0.757972 72.99 0.608362C72.8761 0.48484 72.7405 0.383172 72.59 0.308362C72.49 0.208362 72.38 0.208362 72.19 0.208362ZM71.8 1.59836V0.508362H72.38C72.48 0.608362 72.48 0.608362 72.58 0.608362V0.798362C72.58 0.898362 72.58 0.998362 72.48 0.998362C72.38 0.998362 72.38 1.09836 72.28 1.09836L72.38 1.19836L72.58 1.39836L72.68 1.59836H72.48L72.38 1.49836C72.3283 1.38915 72.2609 1.28808 72.18 1.19836H71.89V1.59836H71.8ZM71.9 0.998362H72.38V0.698362H71.89L71.9 0.998362Z" transform="translate(46.62)" fill="#11273F"/>
<path d="M0 0H0.690002V32.53H0V0Z" transform="translate(36.01 0.998363)" fill="#11273F"/>
<path d="M13 0L1.3 6L3.38 7.04L13 2.28L22.72 7.04L24.8 5.95L13 0ZM12.11 14L0 7.24V21.81L12.1 28.56L12.11 14ZM14.11 28.48L26.11 21.83V7.24L14.11 13.88V28.48Z" transform="translate(0 2.88836)" fill="#11273F"/>
</svg>
